<svg width="948" height="160" viewBox="0 0 948 160" fill="none" xmlns="http://www.w3.org/2000/svg">
<path d="M56 85L73.2716 67L351 67" stroke="url(#paint0_linear_1_1361)" stroke-width="2"/>
<g filter="url(#filter0_d_1_1361)">
<path d="M74.9433 70H99L84 86H60L74.9433 70Z" fill="#568EFF"/>
</g>
<g filter="url(#filter1_d_1_1361)">
<path d="M101.943 70H126L111 86H87L101.943 70Z" fill="#568EFF"/>
</g>
<g filter="url(#filter2_d_1_1361)">
<path d="M128.943 70H153L138 86H114L128.943 70Z" fill="#568EFF" fill-opacity="0.7" shape-rendering="crispEdges"/>
</g>
<g filter="url(#filter3_d_1_1361)">
<path d="M155.943 70H180L165 86H141L155.943 70Z" fill="#568EFF" fill-opacity="0.5" shape-rendering="crispEdges"/>
</g>
<g filter="url(#filter4_d_1_1361)">
<path d="M382 56H566L582 76L566 96H382L366 76L382 56Z" fill="#568EFF"/>
</g>
<path d="M412.571 82L416.999 70.408H419.663L424.073 82H421.553L420.455 79.21H416.189L415.109 82H412.571ZM416.549 77.338H420.095L418.313 72.676L416.549 77.338ZM425.763 82V70.408H431.325C432.657 70.408 433.635 70.762 434.259 71.47C434.883 72.166 435.195 73.108 435.195 74.296C435.195 75.076 434.991 75.748 434.583 76.312C434.187 76.876 433.623 77.284 432.891 77.536C433.083 77.692 433.233 77.86 433.341 78.04C433.461 78.22 433.581 78.46 433.701 78.76L435.105 82H432.585L431.217 78.886C431.097 78.622 430.965 78.436 430.821 78.328C430.677 78.22 430.437 78.166 430.101 78.166H428.193V82H425.763ZM428.193 76.15H430.695C431.331 76.15 431.829 76.012 432.189 75.736C432.549 75.448 432.729 74.968 432.729 74.296C432.729 73.648 432.573 73.174 432.261 72.874C431.949 72.574 431.475 72.424 430.839 72.424H428.193V76.15ZM436.89 82V70.408H439.338L442.74 77.374L446.142 70.408H448.572V82H446.142V74.458L443.442 80.002H442.038L439.32 74.458V82H436.89ZM450.259 82L454.687 70.408H457.351L461.761 82H459.241L458.143 79.21H453.877L452.797 82H450.259ZM454.237 77.338H457.783L456.001 72.676L454.237 77.338ZM466.242 82.18C465.498 82.18 464.802 82.126 464.154 82.018C463.518 81.91 462.966 81.754 462.498 81.55V79.408C463.026 79.624 463.596 79.798 464.208 79.93C464.82 80.062 465.42 80.128 466.008 80.128C466.848 80.128 467.466 80.05 467.862 79.894C468.258 79.738 468.456 79.384 468.456 78.832C468.456 78.484 468.372 78.208 468.204 78.004C468.036 77.8 467.742 77.62 467.322 77.464C466.914 77.296 466.332 77.11 465.576 76.906C464.364 76.57 463.512 76.15 463.02 75.646C462.528 75.142 462.282 74.446 462.282 73.558C462.282 72.49 462.672 71.668 463.452 71.092C464.232 70.516 465.366 70.228 466.854 70.228C467.55 70.228 468.198 70.276 468.798 70.372C469.398 70.468 469.884 70.582 470.256 70.714V72.856C469.272 72.484 468.246 72.298 467.178 72.298C466.422 72.298 465.828 72.382 465.396 72.55C464.964 72.706 464.748 73.042 464.748 73.558C464.748 73.858 464.826 74.098 464.982 74.278C465.138 74.458 465.402 74.62 465.774 74.764C466.158 74.908 466.692 75.07 467.376 75.25C468.324 75.502 469.056 75.802 469.572 76.15C470.088 76.498 470.442 76.894 470.634 77.338C470.838 77.782 470.94 78.28 470.94 78.832C470.94 79.84 470.556 80.65 469.788 81.262C469.02 81.874 467.838 82.18 466.242 82.18ZM480.182 82.18C479.438 82.18 478.742 82.126 478.094 82.018C477.458 81.91 476.906 81.754 476.438 81.55V79.408C476.966 79.624 477.536 79.798 478.148 79.93C478.76 80.062 479.36 80.128 479.948 80.128C480.788 80.128 481.406 80.05 481.802 79.894C482.198 79.738 482.396 79.384 482.396 78.832C482.396 78.484 482.312 78.208 482.144 78.004C481.976 77.8 481.682 77.62 481.262 77.464C480.854 77.296 480.272 77.11 479.516 76.906C478.304 76.57 477.452 76.15 476.96 75.646C476.468 75.142 476.222 74.446 476.222 73.558C476.222 72.49 476.612 71.668 477.392 71.092C478.172 70.516 479.306 70.228 480.794 70.228C481.49 70.228 482.138 70.276 482.738 70.372C483.338 70.468 483.824 70.582 484.196 70.714V72.856C483.212 72.484 482.186 72.298 481.118 72.298C480.362 72.298 479.768 72.382 479.336 72.55C478.904 72.706 478.688 73.042 478.688 73.558C478.688 73.858 478.766 74.098 478.922 74.278C479.078 74.458 479.342 74.62 479.714 74.764C480.098 74.908 480.632 75.07 481.316 75.25C482.264 75.502 482.996 75.802 483.512 76.15C484.028 76.498 484.382 76.894 484.574 77.338C484.778 77.782 484.88 78.28 484.88 78.832C484.88 79.84 484.496 80.65 483.728 81.262C482.96 81.874 481.778 82.18 480.182 82.18ZM491.84 82.18C488.084 82.18 486.206 80.206 486.206 76.258C486.206 74.134 486.68 72.598 487.628 71.65C488.576 70.702 489.98 70.228 491.84 70.228C493.7 70.228 495.104 70.702 496.052 71.65C497 72.598 497.474 74.134 497.474 76.258C497.474 80.206 495.596 82.18 491.84 82.18ZM491.84 80.11C492.932 80.11 493.73 79.798 494.234 79.174C494.75 78.538 495.008 77.566 495.008 76.258C495.008 74.806 494.75 73.786 494.234 73.198C493.73 72.598 492.932 72.298 491.84 72.298C490.748 72.298 489.944 72.598 489.428 73.198C488.924 73.786 488.672 74.806 488.672 76.258C488.672 77.566 488.924 78.538 489.428 79.174C489.944 79.798 490.748 80.11 491.84 80.11ZM499.17 82V70.408H501.6V80.128H507.306V82H499.17ZM509.326 82V72.28H505.762V70.408H515.302V72.28H511.756V82H509.326ZM514.753 82L519.181 70.408H521.845L526.255 82H523.735L522.637 79.21H518.371L517.291 82H514.753ZM518.731 77.338H522.277L520.495 72.676L518.731 77.338ZM530.736 82.18C529.992 82.18 529.296 82.126 528.648 82.018C528.012 81.91 527.46 81.754 526.992 81.55V79.408C527.52 79.624 528.09 79.798 528.702 79.93C529.314 80.062 529.914 80.128 530.502 80.128C531.342 80.128 531.96 80.05 532.356 79.894C532.752 79.738 532.95 79.384 532.95 78.832C532.95 78.484 532.866 78.208 532.698 78.004C532.53 77.8 532.236 77.62 531.816 77.464C531.408 77.296 530.826 77.11 530.07 76.906C528.858 76.57 528.006 76.15 527.514 75.646C527.022 75.142 526.776 74.446 526.776 73.558C526.776 72.49 527.166 71.668 527.946 71.092C528.726 70.516 529.86 70.228 531.348 70.228C532.044 70.228 532.692 70.276 533.292 70.372C533.892 70.468 534.378 70.582 534.75 70.714V72.856C533.766 72.484 532.74 72.298 531.672 72.298C530.916 72.298 530.322 72.382 529.89 72.55C529.458 72.706 529.242 73.042 529.242 73.558C529.242 73.858 529.32 74.098 529.476 74.278C529.632 74.458 529.896 74.62 530.268 74.764C530.652 74.908 531.186 75.07 531.87 75.25C532.818 75.502 533.55 75.802 534.066 76.15C534.582 76.498 534.936 76.894 535.128 77.338C535.332 77.782 535.434 78.28 535.434 78.832C535.434 79.84 535.05 80.65 534.282 81.262C533.514 81.874 532.332 82.18 530.736 82.18Z" fill="white"/>
<path d="M892 85L874.728 67L597 67" stroke="url(#paint1_linear_1_1361)" stroke-width="2"/>
<g filter="url(#filter5_d_1_1361)">
<path d="M873.057 70H849L864 86H888L873.057 70Z" fill="#568EFF"/>
</g>
<g filter="url(#filter6_d_1_1361)">
<path d="M846.057 70H822L837 86H861L846.057 70Z" fill="#568EFF"/>
</g>
<g filter="url(#filter7_d_1_1361)">
<path d="M819.057 70H795L810 86H834L819.057 70Z" fill="#568EFF" fill-opacity="0.7" shape-rendering="crispEdges"/>
</g>
<g filter="url(#filter8_d_1_1361)">
<path d="M792.057 70H768L783 86H807L792.057 70Z" fill="#568EFF" fill-opacity="0.5" shape-rendering="crispEdges"/>
</g>
<defs>
<filter id="filter0_d_1_1361" x="0" y="14" width="159" height="136" filterUnits="userSpaceOnUse" color-interpolation-filters="sRGB">
<feFlood flood-opacity="0" result="BackgroundImageFix"/>
<feColorMatrix in="SourceAlpha" type="matrix" values="0 0 0 0 0 0 0 0 0 0 0 0 0 0 0 0 0 0 127 0" result="hardAlpha"/>
<feOffset dy="4"/>
<feGaussianBlur stdDeviation="30"/>
<feComposite in2="hardAlpha" operator="out"/>
<feColorMatrix type="matrix" values="0 0 0 0 0.337255 0 0 0 0 0.556863 0 0 0 0 1 0 0 0 1 0"/>
<feBlend mode="normal" in2="BackgroundImageFix" result="effect1_dropShadow_1_1361"/>
<feBlend mode="normal" in="SourceGraphic" in2="effect1_dropShadow_1_1361" result="shape"/>
</filter>
<filter id="filter1_d_1_1361" x="27" y="14" width="159" height="136" filterUnits="userSpaceOnUse" color-interpolation-filters="sRGB">
<feFlood flood-opacity="0" result="BackgroundImageFix"/>
<feColorMatrix in="SourceAlpha" type="matrix" values="0 0 0 0 0 0 0 0 0 0 0 0 0 0 0 0 0 0 127 0" result="hardAlpha"/>
<feOffset dy="4"/>
<feGaussianBlur stdDeviation="30"/>
<feComposite in2="hardAlpha" operator="out"/>
<feColorMatrix type="matrix" values="0 0 0 0 0.337255 0 0 0 0 0.556863 0 0 0 0 1 0 0 0 1 0"/>
<feBlend mode="normal" in2="BackgroundImageFix" result="effect1_dropShadow_1_1361"/>
<feBlend mode="normal" in="SourceGraphic" in2="effect1_dropShadow_1_1361" result="shape"/>
</filter>
<filter id="filter2_d_1_1361" x="54" y="14" width="159" height="136" filterUnits="userSpaceOnUse" color-interpolation-filters="sRGB">
<feFlood flood-opacity="0" result="BackgroundImageFix"/>
<feColorMatrix in="SourceAlpha" type="matrix" values="0 0 0 0 0 0 0 0 0 0 0 0 0 0 0 0 0 0 127 0" result="hardAlpha"/>
<feOffset dy="4"/>
<feGaussianBlur stdDeviation="30"/>
<feComposite in2="hardAlpha" operator="out"/>
<feColorMatrix type="matrix" values="0 0 0 0 0.337255 0 0 0 0 0.556863 0 0 0 0 1 0 0 0 1 0"/>
<feBlend mode="normal" in2="BackgroundImageFix" result="effect1_dropShadow_1_1361"/>
<feBlend mode="normal" in="SourceGraphic" in2="effect1_dropShadow_1_1361" result="shape"/>
</filter>
<filter id="filter3_d_1_1361" x="81" y="14" width="159" height="136" filterUnits="userSpaceOnUse" color-interpolation-filters="sRGB">
<feFlood flood-opacity="0" result="BackgroundImageFix"/>
<feColorMatrix in="SourceAlpha" type="matrix" values="0 0 0 0 0 0 0 0 0 0 0 0 0 0 0 0 0 0 127 0" result="hardAlpha"/>
<feOffset dy="4"/>
<feGaussianBlur stdDeviation="30"/>
<feComposite in2="hardAlpha" operator="out"/>
<feColorMatrix type="matrix" values="0 0 0 0 0.337255 0 0 0 0 0.556863 0 0 0 0 1 0 0 0 1 0"/>
<feBlend mode="normal" in2="BackgroundImageFix" result="effect1_dropShadow_1_1361"/>
<feBlend mode="normal" in="SourceGraphic" in2="effect1_dropShadow_1_1361" result="shape"/>
</filter>
<filter id="filter4_d_1_1361" x="306" y="0" width="336" height="160" filterUnits="userSpaceOnUse" color-interpolation-filters="sRGB">
<feFlood flood-opacity="0" result="BackgroundImageFix"/>
<feColorMatrix in="SourceAlpha" type="matrix" values="0 0 0 0 0 0 0 0 0 0 0 0 0 0 0 0 0 0 127 0" result="hardAlpha"/>
<feOffset dy="4"/>
<feGaussianBlur stdDeviation="30"/>
<feComposite in2="hardAlpha" operator="out"/>
<feColorMatrix type="matrix" values="0 0 0 0 0.337255 0 0 0 0 0.556863 0 0 0 0 1 0 0 0 0.53 0"/>
<feBlend mode="normal" in2="BackgroundImageFix" result="effect1_dropShadow_1_1361"/>
<feBlend mode="normal" in="SourceGraphic" in2="effect1_dropShadow_1_1361" result="shape"/>
</filter>
<filter id="filter5_d_1_1361" x="789" y="14" width="159" height="136" filterUnits="userSpaceOnUse" color-interpolation-filters="sRGB">
<feFlood flood-opacity="0" result="BackgroundImageFix"/>
<feColorMatrix in="SourceAlpha" type="matrix" values="0 0 0 0 0 0 0 0 0 0 0 0 0 0 0 0 0 0 127 0" result="hardAlpha"/>
<feOffset dy="4"/>
<feGaussianBlur stdDeviation="30"/>
<feComposite in2="hardAlpha" operator="out"/>
<feColorMatrix type="matrix" values="0 0 0 0 0.337255 0 0 0 0 0.556863 0 0 0 0 1 0 0 0 1 0"/>
<feBlend mode="normal" in2="BackgroundImageFix" result="effect1_dropShadow_1_1361"/>
<feBlend mode="normal" in="SourceGraphic" in2="effect1_dropShadow_1_1361" result="shape"/>
</filter>
<filter id="filter6_d_1_1361" x="762" y="14" width="159" height="136" filterUnits="userSpaceOnUse" color-interpolation-filters="sRGB">
<feFlood flood-opacity="0" result="BackgroundImageFix"/>
<feColorMatrix in="SourceAlpha" type="matrix" values="0 0 0 0 0 0 0 0 0 0 0 0 0 0 0 0 0 0 127 0" result="hardAlpha"/>
<feOffset dy="4"/>
<feGaussianBlur stdDeviation="30"/>
<feComposite in2="hardAlpha" operator="out"/>
<feColorMatrix type="matrix" values="0 0 0 0 0.337255 0 0 0 0 0.556863 0 0 0 0 1 0 0 0 1 0"/>
<feBlend mode="normal" in2="BackgroundImageFix" result="effect1_dropShadow_1_1361"/>
<feBlend mode="normal" in="SourceGraphic" in2="effect1_dropShadow_1_1361" result="shape"/>
</filter>
<filter id="filter7_d_1_1361" x="735" y="14" width="159" height="136" filterUnits="userSpaceOnUse" color-interpolation-filters="sRGB">
<feFlood flood-opacity="0" result="BackgroundImageFix"/>
<feColorMatrix in="SourceAlpha" type="matrix" values="0 0 0 0 0 0 0 0 0 0 0 0 0 0 0 0 0 0 127 0" result="hardAlpha"/>
<feOffset dy="4"/>
<feGaussianBlur stdDeviation="30"/>
<feComposite in2="hardAlpha" operator="out"/>
<feColorMatrix type="matrix" values="0 0 0 0 0.337255 0 0 0 0 0.556863 0 0 0 0 1 0 0 0 1 0"/>
<feBlend mode="normal" in2="BackgroundImageFix" result="effect1_dropShadow_1_1361"/>
<feBlend mode="normal" in="SourceGraphic" in2="effect1_dropShadow_1_1361" result="shape"/>
</filter>
<filter id="filter8_d_1_1361" x="708" y="14" width="159" height="136" filterUnits="userSpaceOnUse" color-interpolation-filters="sRGB">
<feFlood flood-opacity="0" result="BackgroundImageFix"/>
<feColorMatrix in="SourceAlpha" type="matrix" values="0 0 0 0 0 0 0 0 0 0 0 0 0 0 0 0 0 0 127 0" result="hardAlpha"/>
<feOffset dy="4"/>
<feGaussianBlur stdDeviation="30"/>
<feComposite in2="hardAlpha" operator="out"/>
<feColorMatrix type="matrix" values="0 0 0 0 0.337255 0 0 0 0 0.556863 0 0 0 0 1 0 0 0 1 0"/>
<feBlend mode="normal" in2="BackgroundImageFix" result="effect1_dropShadow_1_1361"/>
<feBlend mode="normal" in="SourceGraphic" in2="effect1_dropShadow_1_1361" result="shape"/>
</filter>
<linearGradient id="paint0_linear_1_1361" x1="55" y1="79" x2="333.54" y2="79" gradientUnits="userSpaceOnUse">
<stop offset="0.447421" stop-color="#568EFF"/>
<stop offset="0.985" stop-color="#568EFF" stop-opacity="0.13"/>
</linearGradient>
<linearGradient id="paint1_linear_1_1361" x1="893" y1="79" x2="614.46" y2="79" gradientUnits="userSpaceOnUse">
<stop offset="0.447421" stop-color="#568EFF"/>
<stop offset="0.985" stop-color="#568EFF" stop-opacity="0.13"/>
</linearGradient>
</defs>
</svg>
