<svg width="24" height="24" viewBox="0 0 24 24" fill="none" xmlns="http://www.w3.org/2000/svg">
<g clip-path="url(#clip0_1_1403)">
<path d="M7.68744 21.5005C8.5849 21.5005 9.31243 20.7729 9.31243 19.8755C9.31243 18.978 8.5849 18.2505 7.68744 18.2505C6.78997 18.2505 6.06244 18.978 6.06244 19.8755C6.06244 20.7729 6.78997 21.5005 7.68744 21.5005Z" fill="#B2B5B9"/>
<path d="M15.8125 21.5005C16.71 21.5005 17.4375 20.7729 17.4375 19.8755C17.4375 18.978 16.71 18.2505 15.8125 18.2505C14.915 18.2505 14.1875 18.978 14.1875 19.8755C14.1875 20.7729 14.915 21.5005 15.8125 21.5005Z" fill="#B2B5B9"/>
<path d="M20.6745 6.88963C20.1026 6.34273 19.3369 6.04523 18.5457 6.0625H6.59387L6.38019 4.38713C6.30259 3.72956 5.98643 3.12333 5.49164 2.68334C4.99684 2.24336 4.35781 2.00021 3.69569 2H3.21875C2.89552 2 2.58552 2.1284 2.35696 2.35696C2.1284 2.58552 2 2.89552 2 3.21875V3.21875C2 3.54198 2.1284 3.85198 2.35696 4.08054C2.58552 4.3091 2.89552 4.4375 3.21875 4.4375H3.69569C3.76216 4.43821 3.82601 4.46352 3.87492 4.50853C3.92383 4.55354 3.95434 4.61507 3.96056 4.68125L5.17931 14.2354C5.25618 14.8935 5.57205 15.5004 6.06694 15.941C6.56183 16.3815 7.20127 16.6249 7.86381 16.625H16.0879C17.0662 16.6244 18.0173 16.3028 18.7952 15.7096C19.5731 15.1163 20.1348 14.2842 20.3942 13.3409L21.4066 9.65944C21.5415 9.17434 21.5448 8.66205 21.4162 8.17525C21.2875 7.68844 21.0315 7.24469 20.6745 6.88963ZM18.0469 12.6949C17.9279 13.1234 17.6721 13.5011 17.3184 13.7706C16.9647 14.0401 16.5326 14.1865 16.0879 14.1875H7.86381C7.79738 14.187 7.73353 14.1617 7.68471 14.1166C7.63589 14.0716 7.6056 14.0099 7.59975 13.9437L6.90506 8.5H18.6676C18.7304 8.49953 18.7924 8.51361 18.8488 8.54112C18.9052 8.56864 18.9545 8.60885 18.9927 8.65859C19.031 8.70834 19.0572 8.76627 19.0693 8.82785C19.0814 8.88943 19.0791 8.95297 19.0625 9.0135L18.0469 12.6949Z" fill="#B2B5B9"/>
</g>
<defs>
<clipPath id="clip0_1_1403">
<rect width="19.5" height="19.5" fill="white" transform="translate(2 2)"/>
</clipPath>
</defs>
</svg>
