<svg width="36" height="40" viewBox="0 0 36 40" fill="none" xmlns="http://www.w3.org/2000/svg">
<path d="M17.9996 0L9.91351 12.7811L13.1479 17.9979L17.9996 10.4336L22.8512 17.9979L26.0856 12.7811L17.9996 0Z" fill="#568EFF"/>
<path d="M34.104 4.04722C34.0493 4.03112 33.9906 4.05347 33.96 4.10146L22.8511 21.5656L18.1081 14.2214C18.061 14.1483 17.9398 14.1483 17.8928 14.2214L13.1496 21.5656L2.04076 4.10146C2.01024 4.05331 1.95176 4.03104 1.89681 4.04722C1.84209 4.06308 1.80444 4.11323 1.80444 4.17027V14.4996C1.80444 14.5239 1.81133 14.5477 1.82447 14.5683L9.80601 27.1408C9.82956 27.1778 9.87033 27.2002 9.91423 27.2002H16.3309C16.3723 27.2002 16.4112 27.1801 16.4354 27.1463L18.0003 24.9456L19.5652 27.1463C19.5894 27.1801 19.6282 27.2002 19.6697 27.2002H26.0864C26.1303 27.2002 26.1711 27.1778 26.1946 27.1408L34.1762 14.5683C34.1893 14.5477 34.1962 14.5239 34.1962 14.4996V4.17027C34.1962 4.11323 34.1585 4.06316 34.1038 4.04722H34.104Z" fill="white"/>
<path d="M3.87342 21.9993L5.48477 24.5356L7.09612 27.072H3.87342H0.650635L2.26199 24.5356L3.87342 21.9993Z" fill="#568EFF"/>
<path d="M32.1268 21.9993L30.5154 24.5356L28.9041 27.072H32.1268H35.3495L33.7382 24.5356L32.1268 21.9993Z" fill="#568EFF"/>
<path d="M29.0498 31.4502H10.2413L6.9498 34.0364V39.914H25.7583L29.0498 36.6225V31.4502Z" fill="#E8E8E8"/>
<path d="M11.6796 38.0331V33.188H13.9517C14.3329 33.188 14.6438 33.2607 14.8846 33.4062C15.1304 33.5516 15.3134 33.7497 15.4338 34.0005C15.5542 34.2513 15.6144 34.5372 15.6144 34.8582C15.6144 35.1842 15.5441 35.4726 15.4037 35.7234C15.2683 35.9742 15.0727 36.1698 14.8169 36.3102C14.5661 36.4456 14.2677 36.5133 13.9216 36.5133H12.6953V38.0331H11.6796ZM12.6953 35.7083H13.7109C14.0019 35.7083 14.22 35.6331 14.3655 35.4826C14.5159 35.3271 14.5912 35.119 14.5912 34.8582C14.5912 34.5773 14.521 34.3641 14.3805 34.2187C14.2401 34.0682 14.0294 33.993 13.7486 33.993H12.6953V35.7083Z" fill="#211E36"/>
<path d="M17.6089 38.0331L15.7581 33.188H16.8189L18.1581 36.897L19.5048 33.188H20.5656L18.7224 38.0331H17.6089Z" fill="#211E36"/>
<path d="M21.1515 38.0331V33.188H23.4235C23.8047 33.188 24.1157 33.2607 24.3564 33.4062C24.6022 33.5516 24.7853 33.7497 24.9057 34.0005C25.026 34.2513 25.0862 34.5372 25.0862 34.8582C25.0862 35.1842 25.016 35.4726 24.8756 35.7234C24.7401 35.9742 24.5445 36.1698 24.2887 36.3102C24.038 36.4456 23.7395 36.5133 23.3934 36.5133H22.1671V38.0331H21.1515ZM22.1671 35.7083H23.1828C23.4737 35.7083 23.6919 35.6331 23.8373 35.4826C23.9878 35.3271 24.063 35.119 24.063 34.8582C24.063 34.5773 23.9928 34.3641 23.8524 34.2187C23.7119 34.0682 23.5013 33.993 23.2204 33.993H22.1671V35.7083Z" fill="#211E36"/>
</svg>
